<mxfile host="app.diagrams.net" agent="Mozilla/5.0 (Windows NT 10.0; Win64; x64) AppleWebKit/537.36 (KHTML, like Gecko) Chrome/136.0.0.0 Safari/537.36" version="27.1.1">
  <diagram name="Page-1" id="K4HAHvxAuoOAxFSF4gQe">
    <mxGraphModel dx="1042" dy="561" grid="1" gridSize="10" guides="1" tooltips="1" connect="1" arrows="1" fold="1" page="1" pageScale="1" pageWidth="850" pageHeight="1100" math="0" shadow="0">
      <root>
        <mxCell id="0" />
        <mxCell id="1" parent="0" />
        <mxCell id="avbQEoiilErEEHXb16f6-1" value="Area Growth" style="ellipse;whiteSpace=wrap;html=1;align=center;newEdgeStyle={&quot;edgeStyle&quot;:&quot;entityRelationEdgeStyle&quot;,&quot;startArrow&quot;:&quot;none&quot;,&quot;endArrow&quot;:&quot;none&quot;,&quot;segment&quot;:10,&quot;curved&quot;:1,&quot;sourcePerimeterSpacing&quot;:0,&quot;targetPerimeterSpacing&quot;:0};treeFolding=1;treeMoving=1;" parent="1" vertex="1">
          <mxGeometry x="710" y="240" width="100" height="40" as="geometry" />
        </mxCell>
        <mxCell id="avbQEoiilErEEHXb16f6-2" value="Prayer and Sacraments" style="whiteSpace=wrap;html=1;rounded=1;arcSize=50;align=center;verticalAlign=middle;strokeWidth=1;autosize=1;spacing=4;treeFolding=1;treeMoving=1;newEdgeStyle={&quot;edgeStyle&quot;:&quot;entityRelationEdgeStyle&quot;,&quot;startArrow&quot;:&quot;none&quot;,&quot;endArrow&quot;:&quot;none&quot;,&quot;segment&quot;:10,&quot;curved&quot;:1,&quot;sourcePerimeterSpacing&quot;:0,&quot;targetPerimeterSpacing&quot;:0};" parent="1" vertex="1">
          <mxGeometry x="505" y="40" width="170" height="30" as="geometry" />
        </mxCell>
        <mxCell id="avbQEoiilErEEHXb16f6-3" value="" style="edgeStyle=entityRelationEdgeStyle;startArrow=none;endArrow=none;segment=10;curved=1;sourcePerimeterSpacing=0;targetPerimeterSpacing=0;rounded=0;" parent="1" source="avbQEoiilErEEHXb16f6-1" target="avbQEoiilErEEHXb16f6-2" edge="1">
          <mxGeometry relative="1" as="geometry">
            <mxPoint x="510" y="130" as="sourcePoint" />
          </mxGeometry>
        </mxCell>
        <mxCell id="avbQEoiilErEEHXb16f6-4" value="&lt;span style=&quot;color: rgb(34, 34, 34); font-family: Arial, Helvetica, sans-serif; font-size: small; text-align: start; background-color: rgb(255, 255, 255);&quot;&gt;Welcoming Infrastructure&lt;/span&gt;" style="whiteSpace=wrap;html=1;rounded=1;arcSize=50;align=center;verticalAlign=middle;strokeWidth=1;autosize=1;spacing=4;treeFolding=1;treeMoving=1;newEdgeStyle={&quot;edgeStyle&quot;:&quot;entityRelationEdgeStyle&quot;,&quot;startArrow&quot;:&quot;none&quot;,&quot;endArrow&quot;:&quot;none&quot;,&quot;segment&quot;:10,&quot;curved&quot;:1,&quot;sourcePerimeterSpacing&quot;:0,&quot;targetPerimeterSpacing&quot;:0};" parent="1" vertex="1">
          <mxGeometry x="485" y="470" width="190" height="30" as="geometry" />
        </mxCell>
        <mxCell id="avbQEoiilErEEHXb16f6-5" value="" style="edgeStyle=entityRelationEdgeStyle;startArrow=none;endArrow=none;segment=10;curved=1;sourcePerimeterSpacing=0;targetPerimeterSpacing=0;rounded=0;exitX=0;exitY=0.5;exitDx=0;exitDy=0;" parent="1" source="avbQEoiilErEEHXb16f6-1" target="avbQEoiilErEEHXb16f6-4" edge="1">
          <mxGeometry relative="1" as="geometry">
            <mxPoint x="500" y="480" as="sourcePoint" />
          </mxGeometry>
        </mxCell>
        <mxCell id="avbQEoiilErEEHXb16f6-6" value="&lt;span style=&quot;color: rgb(34, 34, 34); font-family: Arial, Helvetica, sans-serif; font-size: small; text-align: start; background-color: rgb(255, 255, 255);&quot;&gt;Shared Small Communities&lt;/span&gt;" style="whiteSpace=wrap;html=1;rounded=1;arcSize=50;align=center;verticalAlign=middle;strokeWidth=1;autosize=1;spacing=4;treeFolding=1;treeMoving=1;newEdgeStyle={&quot;edgeStyle&quot;:&quot;entityRelationEdgeStyle&quot;,&quot;startArrow&quot;:&quot;none&quot;,&quot;endArrow&quot;:&quot;none&quot;,&quot;segment&quot;:10,&quot;curved&quot;:1,&quot;sourcePerimeterSpacing&quot;:0,&quot;targetPerimeterSpacing&quot;:0};" parent="1" vertex="1">
          <mxGeometry x="445" y="288" width="200" height="30" as="geometry" />
        </mxCell>
        <mxCell id="avbQEoiilErEEHXb16f6-7" value="" style="edgeStyle=entityRelationEdgeStyle;startArrow=none;endArrow=none;segment=10;curved=1;sourcePerimeterSpacing=0;targetPerimeterSpacing=0;rounded=0;exitX=0.02;exitY=0.33;exitDx=0;exitDy=0;exitPerimeter=0;" parent="1" source="avbQEoiilErEEHXb16f6-1" target="avbQEoiilErEEHXb16f6-6" edge="1">
          <mxGeometry relative="1" as="geometry">
            <mxPoint x="465" y="330" as="sourcePoint" />
            <Array as="points">
              <mxPoint x="680" y="190" />
            </Array>
          </mxGeometry>
        </mxCell>
        <mxCell id="avbQEoiilErEEHXb16f6-8" value="&lt;span style=&quot;color: rgb(34, 34, 34); font-family: Arial, Helvetica, sans-serif; font-size: small; text-align: start; background-color: rgb(255, 255, 255);&quot;&gt;&#39;Personal Accompaniment/ fellowship&lt;/span&gt;" style="whiteSpace=wrap;html=1;rounded=1;arcSize=50;align=center;verticalAlign=middle;strokeWidth=1;autosize=1;spacing=4;treeFolding=1;treeMoving=1;newEdgeStyle={&quot;edgeStyle&quot;:&quot;entityRelationEdgeStyle&quot;,&quot;startArrow&quot;:&quot;none&quot;,&quot;endArrow&quot;:&quot;none&quot;,&quot;segment&quot;:10,&quot;curved&quot;:1,&quot;sourcePerimeterSpacing&quot;:0,&quot;targetPerimeterSpacing&quot;:0};" parent="1" vertex="1">
          <mxGeometry x="415" y="152" width="260" height="30" as="geometry" />
        </mxCell>
        <mxCell id="avbQEoiilErEEHXb16f6-9" value="" style="edgeStyle=entityRelationEdgeStyle;startArrow=none;endArrow=none;segment=10;curved=1;sourcePerimeterSpacing=0;targetPerimeterSpacing=0;rounded=0;" parent="1" source="avbQEoiilErEEHXb16f6-1" target="avbQEoiilErEEHXb16f6-8" edge="1">
          <mxGeometry relative="1" as="geometry">
            <mxPoint x="465" y="194" as="sourcePoint" />
          </mxGeometry>
        </mxCell>
        <mxCell id="avbQEoiilErEEHXb16f6-10" value="Outreach" style="whiteSpace=wrap;html=1;rounded=1;arcSize=50;align=center;verticalAlign=middle;strokeWidth=1;autosize=1;spacing=4;treeFolding=1;treeMoving=1;newEdgeStyle={&quot;edgeStyle&quot;:&quot;entityRelationEdgeStyle&quot;,&quot;startArrow&quot;:&quot;none&quot;,&quot;endArrow&quot;:&quot;none&quot;,&quot;segment&quot;:10,&quot;curved&quot;:1,&quot;sourcePerimeterSpacing&quot;:0,&quot;targetPerimeterSpacing&quot;:0};" parent="1" vertex="1">
          <mxGeometry x="525" y="388" width="90" height="30" as="geometry" />
        </mxCell>
        <mxCell id="avbQEoiilErEEHXb16f6-11" value="" style="edgeStyle=entityRelationEdgeStyle;startArrow=none;endArrow=none;segment=10;curved=1;sourcePerimeterSpacing=0;targetPerimeterSpacing=0;rounded=0;" parent="1" source="avbQEoiilErEEHXb16f6-1" target="avbQEoiilErEEHXb16f6-10" edge="1">
          <mxGeometry relative="1" as="geometry">
            <mxPoint x="490" y="430" as="sourcePoint" />
          </mxGeometry>
        </mxCell>
        <mxCell id="TRmc7Pw4hhdz3kQGDths-1" value="Programs" style="whiteSpace=wrap;html=1;rounded=1;arcSize=50;align=center;verticalAlign=middle;strokeWidth=1;autosize=1;spacing=4;treeFolding=1;treeMoving=1;newEdgeStyle={&quot;edgeStyle&quot;:&quot;entityRelationEdgeStyle&quot;,&quot;startArrow&quot;:&quot;none&quot;,&quot;endArrow&quot;:&quot;none&quot;,&quot;segment&quot;:10,&quot;curved&quot;:1,&quot;sourcePerimeterSpacing&quot;:0,&quot;targetPerimeterSpacing&quot;:0};" vertex="1" parent="1">
          <mxGeometry x="320" y="250" width="100" height="30" as="geometry" />
        </mxCell>
        <mxCell id="TRmc7Pw4hhdz3kQGDths-2" value="" style="edgeStyle=entityRelationEdgeStyle;startArrow=none;endArrow=none;segment=10;curved=1;sourcePerimeterSpacing=0;targetPerimeterSpacing=0;rounded=0;" edge="1" target="TRmc7Pw4hhdz3kQGDths-1" parent="1" source="avbQEoiilErEEHXb16f6-6">
          <mxGeometry relative="1" as="geometry">
            <mxPoint x="330" y="310" as="sourcePoint" />
          </mxGeometry>
        </mxCell>
        <mxCell id="TRmc7Pw4hhdz3kQGDths-3" value="Greeters" style="whiteSpace=wrap;html=1;rounded=1;arcSize=50;align=center;verticalAlign=middle;strokeWidth=1;autosize=1;spacing=4;treeFolding=1;treeMoving=1;newEdgeStyle={&quot;edgeStyle&quot;:&quot;entityRelationEdgeStyle&quot;,&quot;startArrow&quot;:&quot;none&quot;,&quot;endArrow&quot;:&quot;none&quot;,&quot;segment&quot;:10,&quot;curved&quot;:1,&quot;sourcePerimeterSpacing&quot;:0,&quot;targetPerimeterSpacing&quot;:0};" vertex="1" parent="1">
          <mxGeometry x="335" y="416" width="90" height="30" as="geometry" />
        </mxCell>
        <mxCell id="TRmc7Pw4hhdz3kQGDths-4" value="" style="edgeStyle=entityRelationEdgeStyle;startArrow=none;endArrow=none;segment=10;curved=1;sourcePerimeterSpacing=0;targetPerimeterSpacing=0;rounded=0;exitX=0;exitY=0.25;exitDx=0;exitDy=0;" edge="1" target="TRmc7Pw4hhdz3kQGDths-3" parent="1" source="avbQEoiilErEEHXb16f6-4">
          <mxGeometry relative="1" as="geometry">
            <mxPoint x="300" y="458" as="sourcePoint" />
          </mxGeometry>
        </mxCell>
        <mxCell id="TRmc7Pw4hhdz3kQGDths-5" value="Embasedors" style="whiteSpace=wrap;html=1;rounded=1;arcSize=50;align=center;verticalAlign=middle;strokeWidth=1;autosize=1;spacing=4;treeFolding=1;treeMoving=1;newEdgeStyle={&quot;edgeStyle&quot;:&quot;entityRelationEdgeStyle&quot;,&quot;startArrow&quot;:&quot;none&quot;,&quot;endArrow&quot;:&quot;none&quot;,&quot;segment&quot;:10,&quot;curved&quot;:1,&quot;sourcePerimeterSpacing&quot;:0,&quot;targetPerimeterSpacing&quot;:0};" vertex="1" parent="1">
          <mxGeometry x="320" y="468" width="110" height="30" as="geometry" />
        </mxCell>
        <mxCell id="TRmc7Pw4hhdz3kQGDths-6" value="" style="edgeStyle=entityRelationEdgeStyle;startArrow=none;endArrow=none;segment=10;curved=1;sourcePerimeterSpacing=0;targetPerimeterSpacing=0;rounded=0;" edge="1" target="TRmc7Pw4hhdz3kQGDths-5" parent="1" source="avbQEoiilErEEHXb16f6-4">
          <mxGeometry relative="1" as="geometry">
            <mxPoint x="295" y="510" as="sourcePoint" />
          </mxGeometry>
        </mxCell>
        <mxCell id="TRmc7Pw4hhdz3kQGDths-7" value="Ministries" style="whiteSpace=wrap;html=1;rounded=1;arcSize=50;align=center;verticalAlign=middle;strokeWidth=1;autosize=1;spacing=4;treeFolding=1;treeMoving=1;newEdgeStyle={&quot;edgeStyle&quot;:&quot;entityRelationEdgeStyle&quot;,&quot;startArrow&quot;:&quot;none&quot;,&quot;endArrow&quot;:&quot;none&quot;,&quot;segment&quot;:10,&quot;curved&quot;:1,&quot;sourcePerimeterSpacing&quot;:0,&quot;targetPerimeterSpacing&quot;:0};" vertex="1" parent="1">
          <mxGeometry x="320" y="316" width="100" height="30" as="geometry" />
        </mxCell>
        <mxCell id="TRmc7Pw4hhdz3kQGDths-8" value="" style="edgeStyle=entityRelationEdgeStyle;startArrow=none;endArrow=none;segment=10;curved=1;sourcePerimeterSpacing=0;targetPerimeterSpacing=0;rounded=0;exitX=0;exitY=0.75;exitDx=0;exitDy=0;" edge="1" target="TRmc7Pw4hhdz3kQGDths-7" parent="1" source="avbQEoiilErEEHXb16f6-6">
          <mxGeometry relative="1" as="geometry">
            <mxPoint x="290" y="358" as="sourcePoint" />
          </mxGeometry>
        </mxCell>
        <mxCell id="TRmc7Pw4hhdz3kQGDths-9" value="groups of 2-4" style="whiteSpace=wrap;html=1;rounded=1;arcSize=50;align=center;verticalAlign=middle;strokeWidth=1;autosize=1;spacing=4;treeFolding=1;treeMoving=1;newEdgeStyle={&quot;edgeStyle&quot;:&quot;entityRelationEdgeStyle&quot;,&quot;startArrow&quot;:&quot;none&quot;,&quot;endArrow&quot;:&quot;none&quot;,&quot;segment&quot;:10,&quot;curved&quot;:1,&quot;sourcePerimeterSpacing&quot;:0,&quot;targetPerimeterSpacing&quot;:0};" vertex="1" parent="1">
          <mxGeometry x="265" y="124" width="120" height="30" as="geometry" />
        </mxCell>
        <mxCell id="TRmc7Pw4hhdz3kQGDths-10" value="" style="edgeStyle=entityRelationEdgeStyle;startArrow=none;endArrow=none;segment=10;curved=1;sourcePerimeterSpacing=0;targetPerimeterSpacing=0;rounded=0;" edge="1" target="TRmc7Pw4hhdz3kQGDths-9" parent="1" source="avbQEoiilErEEHXb16f6-8">
          <mxGeometry relative="1" as="geometry">
            <mxPoint x="290" y="166" as="sourcePoint" />
          </mxGeometry>
        </mxCell>
        <mxCell id="TRmc7Pw4hhdz3kQGDths-11" value="Priest / Deacon time" style="whiteSpace=wrap;html=1;rounded=1;arcSize=50;align=center;verticalAlign=middle;strokeWidth=1;autosize=1;spacing=4;treeFolding=1;treeMoving=1;newEdgeStyle={&quot;edgeStyle&quot;:&quot;entityRelationEdgeStyle&quot;,&quot;startArrow&quot;:&quot;none&quot;,&quot;endArrow&quot;:&quot;none&quot;,&quot;segment&quot;:10,&quot;curved&quot;:1,&quot;sourcePerimeterSpacing&quot;:0,&quot;targetPerimeterSpacing&quot;:0};" vertex="1" parent="1">
          <mxGeometry x="240" y="168" width="150" height="30" as="geometry" />
        </mxCell>
        <mxCell id="TRmc7Pw4hhdz3kQGDths-12" value="" style="edgeStyle=entityRelationEdgeStyle;startArrow=none;endArrow=none;segment=10;curved=1;sourcePerimeterSpacing=0;targetPerimeterSpacing=0;rounded=0;exitX=0;exitY=0.5;exitDx=0;exitDy=0;" edge="1" target="TRmc7Pw4hhdz3kQGDths-11" parent="1" source="avbQEoiilErEEHXb16f6-8">
          <mxGeometry relative="1" as="geometry">
            <mxPoint x="370" y="167" as="sourcePoint" />
          </mxGeometry>
        </mxCell>
        <mxCell id="TRmc7Pw4hhdz3kQGDths-13" value="Sub Topic" style="whiteSpace=wrap;html=1;rounded=1;arcSize=50;align=center;verticalAlign=middle;strokeWidth=1;autosize=1;spacing=4;treeFolding=1;treeMoving=1;newEdgeStyle={&quot;edgeStyle&quot;:&quot;entityRelationEdgeStyle&quot;,&quot;startArrow&quot;:&quot;none&quot;,&quot;endArrow&quot;:&quot;none&quot;,&quot;segment&quot;:10,&quot;curved&quot;:1,&quot;sourcePerimeterSpacing&quot;:0,&quot;targetPerimeterSpacing&quot;:0};" vertex="1" parent="1">
          <mxGeometry x="340" y="522" width="100" height="30" as="geometry" />
        </mxCell>
        <mxCell id="TRmc7Pw4hhdz3kQGDths-14" value="" style="edgeStyle=entityRelationEdgeStyle;startArrow=none;endArrow=none;segment=10;curved=1;sourcePerimeterSpacing=0;targetPerimeterSpacing=0;rounded=0;exitX=0;exitY=0.5;exitDx=0;exitDy=0;" edge="1" target="TRmc7Pw4hhdz3kQGDths-13" parent="1" source="avbQEoiilErEEHXb16f6-4">
          <mxGeometry relative="1" as="geometry">
            <mxPoint x="310" y="564" as="sourcePoint" />
          </mxGeometry>
        </mxCell>
        <mxCell id="TRmc7Pw4hhdz3kQGDths-15" value="Teach Faith" style="whiteSpace=wrap;html=1;rounded=1;arcSize=50;align=center;verticalAlign=middle;strokeWidth=1;autosize=1;spacing=4;treeFolding=1;treeMoving=1;newEdgeStyle={&quot;edgeStyle&quot;:&quot;entityRelationEdgeStyle&quot;,&quot;startArrow&quot;:&quot;none&quot;,&quot;endArrow&quot;:&quot;none&quot;,&quot;segment&quot;:10,&quot;curved&quot;:1,&quot;sourcePerimeterSpacing&quot;:0,&quot;targetPerimeterSpacing&quot;:0};" vertex="1" parent="1">
          <mxGeometry x="323" y="20" width="110" height="30" as="geometry" />
        </mxCell>
        <mxCell id="TRmc7Pw4hhdz3kQGDths-16" value="" style="edgeStyle=entityRelationEdgeStyle;startArrow=none;endArrow=none;segment=10;curved=1;sourcePerimeterSpacing=0;targetPerimeterSpacing=0;rounded=0;exitX=0;exitY=0.5;exitDx=0;exitDy=0;" edge="1" target="TRmc7Pw4hhdz3kQGDths-15" parent="1" source="avbQEoiilErEEHXb16f6-2">
          <mxGeometry relative="1" as="geometry">
            <mxPoint x="295" y="80" as="sourcePoint" />
          </mxGeometry>
        </mxCell>
        <mxCell id="TRmc7Pw4hhdz3kQGDths-17" value="Teach Prayer" style="whiteSpace=wrap;html=1;rounded=1;arcSize=50;align=center;verticalAlign=middle;strokeWidth=1;autosize=1;spacing=4;treeFolding=1;treeMoving=1;newEdgeStyle={&quot;edgeStyle&quot;:&quot;entityRelationEdgeStyle&quot;,&quot;startArrow&quot;:&quot;none&quot;,&quot;endArrow&quot;:&quot;none&quot;,&quot;segment&quot;:10,&quot;curved&quot;:1,&quot;sourcePerimeterSpacing&quot;:0,&quot;targetPerimeterSpacing&quot;:0};" vertex="1" parent="1">
          <mxGeometry x="315" y="70" width="120" height="30" as="geometry" />
        </mxCell>
        <mxCell id="TRmc7Pw4hhdz3kQGDths-18" value="" style="edgeStyle=entityRelationEdgeStyle;startArrow=none;endArrow=none;segment=10;curved=1;sourcePerimeterSpacing=0;targetPerimeterSpacing=0;rounded=0;exitX=0;exitY=0.5;exitDx=0;exitDy=0;" edge="1" target="TRmc7Pw4hhdz3kQGDths-17" parent="1" source="avbQEoiilErEEHXb16f6-2">
          <mxGeometry relative="1" as="geometry">
            <mxPoint x="220" y="287" as="sourcePoint" />
          </mxGeometry>
        </mxCell>
      </root>
    </mxGraphModel>
  </diagram>
</mxfile>
